<?xml version="1.0" encoding="utf-8"?>
<!-- Generator: Adobe Illustrator 24.3.0, SVG Export Plug-In . SVG Version: 6.00 Build 0)  -->
<svg version="1.1" id="Camada_1" xmlns="http://www.w3.org/2000/svg" xmlns:xlink="http://www.w3.org/1999/xlink" x="0px" y="0px"
	 viewBox="0 0 250 110" style="enable-background:new 0 0 250 110;" xml:space="preserve">
<style type="text/css">
	.st0{fill:#FFFFFF;}
	.st1{fill:#EE6923;}
</style>
<g>
	<path class="st0" d="M33.8,46.4H32v33.9L9.6,48.6c-1-1.4-2.4-2.2-4.2-2.2H2.8v40.2c0,2.7,1.1,4.1,3.4,4.1h1.6V57.1l22.5,31.2
		c1.2,1.6,2.7,2.4,4.5,2.4H37V50.5C37,47.8,35.9,46.4,33.8,46.4 M194.3,63.2h-1.7v24.5c0,0-7,0.5-10.4-2.3c-3.4-2.8-3.4-9.3-3.4-9.3
		v-9.3c0-2.4-1.3-3.6-3.9-3.6h-1.7v14.7c0,0-0.4,7.7,5.9,10.9c5.4,2.7,13.4,2,13.4,2c0,2.2-0.2,4-0.5,5.4c-0.3,1.4-0.8,2.6-1.6,3.5
		c-0.7,0.9-1.7,1.5-2.9,1.9c-1.2,0.4-2.7,0.6-4.5,0.6h-0.8l-1.1,3h1.5c3,0,5.5-0.3,7.4-0.8c2-0.5,3.6-1.4,4.7-2.6
		c1.2-1.2,2-2.8,2.5-4.7c0.5-1.9,0.7-4.4,0.7-7.2V66.9C198.1,64.4,196.8,63.2,194.3,63.2 M154.8,63.2H148l0.9,3h5.8
		c4.9,0,7.5,2.8,8,8.3h-6.6c-4.2,0-7.2,0.7-9.1,2c-1.9,1.3-2.9,3.5-2.9,6.4c0,5.3,3.8,8,11.4,8h4.5l-1.1-3h-2.8
		c-2.4,0-4.1-0.4-5.1-1.1c-1-0.7-1.6-2-1.6-3.9c0-2,0.5-3.4,1.5-4.2c1-0.8,2.9-1.2,5.7-1.2h6v9.7c0,2.5,1.3,3.7,3.8,3.7h1.8V75.1
		C168.5,67.1,163.9,63.2,154.8,63.2 M138.8,63.5c-0.5,0.3-0.9,0.9-1.3,1.9l-6.5,19.5l-6-21.7h-2.4c-1.5,0-2.5,0.8-3,2.4l-6.1,19
		L107,65.4c-0.4-0.9-0.9-1.6-1.4-1.9c-0.5-0.3-1.3-0.5-2.3-0.5h-3.6l10.6,27.2c0.3,0.6,1.1,0.9,2.6,0.9c1.5,0,2.3-0.3,2.6-0.9
		l6.3-19.7l6,19.7c0.2,0.6,1,0.9,2.6,0.9c1.5,0,2.4-0.3,2.7-0.9L143.2,63H141C140,63,139.2,63.2,138.8,63.5 M92,78.2
		c0,2.9-0.6,5.3-1.9,7.1C88.8,87.1,87,88,84.5,88h-1.2c-2.5,0-4.3-0.9-5.6-2.7c-1.2-1.8-1.9-4.2-1.9-7.1v-2.4c0-3,0.6-5.4,1.9-7.1
		c1.3-1.8,3.1-2.6,5.6-2.6h1.2c2.4,0,4.3,0.9,5.6,2.6c1.3,1.7,1.9,4.1,1.9,7.2V78.2z M84.5,63.1h-1.2c-4,0-6.9,1.1-9.2,3.3
		c-2.4,2.2-3.5,5.3-3.5,9.4v2.4c0,2,0.3,3.7,0.9,5.3c0.6,1.6,1.5,2.9,2.6,4c1.1,1.1,2.5,1.9,4.1,2.5c1.6,0.6,3.1,0.9,5.1,0.9h1.2
		c2,0,3.5-0.3,5.1-0.9c1.6-0.6,3-1.4,4.1-2.5c1.1-1.1,2-2.4,2.6-4c0.6-1.6,0.9-3.4,0.9-5.3v-2.4c0-4.1-1.2-7.2-3.5-9.4
		C91.5,64.2,88.6,63.1,84.5,63.1 M54.8,63.1H54c-1.9,0-3.4,0.3-5,0.9c-1.6,0.6-2.9,1.5-4,2.6c-1.1,1.1-1.9,2.5-2.5,4
		c-0.6,1.6-0.9,3.4-0.9,5.3v2.5c0,4.1,1.2,7.3,3.7,9.4c2.4,2.1,5.6,3.2,9.9,3.2h8.6l-1.1-3h-7.5c-1.2,0-2.2-0.2-3.2-0.6
		c-1-0.4-1.8-1-2.5-1.8c-0.7-0.7-1.3-1.6-1.7-2.6c-0.4-1-0.6-2.1-0.6-3.3V76c0-3,0.5-5.4,1.6-7.2C50,66.9,51.7,66,54,66h0.8
		c2.4,0,4.2,0.8,5.2,2.4c1,1.6,1.5,4,1.5,7.1h-9.8l-1,3.2h15.4c0.1-0.5,0.1-1,0.2-1.5c0-0.5,0.1-1.1,0.1-1.8
		C66.4,67.2,62.5,63.1,54.8,63.1"/>
	<path class="st1" d="M220.7,59.6c-0.2-0.1-0.4-0.2-0.6-0.3c9.6,0.2,19-3.3,26.3-9.8c-8.5,6.4-19.1,9.2-29.7,7.8
		c-7.1-4.9-13-12.7-16.4-22.3c-3.7-9.8-4.6-20.7-2.4-30c-5.3,16.7-1.9,38,12.8,50.9c-3.3-1-6.5-2.3-9.6-4.2
		c-9.6-5.6-14.7-14.9-14.7-14.9c1.6,4.8,5.1,11.3,15.6,17.3c3.9,2.3,8.1,3.7,12.2,4.5c6,3.8,12.5,4.7,17.8,4
		c-1.6-0.1-3.2-0.3-4.8-0.7C225.2,61.6,223,60.8,220.7,59.6"/>
</g>
</svg>
